<svg width="50" height="50" viewBox="0 0 50 50" fill="none" xmlns="http://www.w3.org/2000/svg">
<mask id="mask0_19_140" style="mask-type:alpha" maskUnits="userSpaceOnUse" x="0" y="0" width="50" height="50">
<rect width="50" height="50" fill="#D9D9D9"/>
</mask>
<g mask="url(#mask0_19_140)">
<path d="M33.8901 38.2452L29.4271 42.7082L25.7411 39.0222L30.2042 34.5389C30.0385 34.1438 29.9111 33.7311 29.8219 33.3009C29.7323 32.871 29.6875 32.4344 29.6875 31.991C29.6875 30.1108 30.3458 28.5122 31.6625 27.1952C32.9795 25.8785 34.5781 25.2202 36.4583 25.2202C37.0167 25.2202 37.5575 25.2849 38.0807 25.4144C38.6043 25.5439 39.0998 25.7276 39.5672 25.9655L35 30.5327L37.9167 33.4493L42.4838 28.9342C42.7217 29.4016 42.9054 29.8884 43.0349 30.3946C43.1644 30.9005 43.2292 31.4327 43.2292 31.991C43.2292 33.8712 42.5708 35.4698 41.2542 36.7868C39.9371 38.1035 38.3385 38.7618 36.4583 38.7618C35.9937 38.7618 35.5484 38.717 35.1224 38.6274C34.6963 38.5382 34.2856 38.4108 33.8901 38.2452ZM42.0792 20.4327H38.838C37.8818 17.4972 36.1531 15.0939 33.6521 13.2228C31.1507 11.3519 28.2667 10.4165 25 10.4165C20.9375 10.4165 17.4913 11.8314 14.6614 14.6613C11.8316 17.4912 10.4167 20.9373 10.4167 24.9998C10.4167 27.7134 11.0844 30.1754 12.4198 32.3858C13.7552 34.5958 15.518 36.3205 17.7083 37.5597V31.2498H20.8333V42.7082H9.37499V39.5832H15.2724C12.8661 38.0207 10.9344 35.9674 9.47707 33.4233C8.02013 30.8792 7.29166 28.0714 7.29166 24.9998C7.29166 22.5425 7.75641 20.2403 8.68593 18.0931C9.61544 15.9455 10.8788 14.0731 12.476 12.4759C14.0733 10.8787 15.9457 9.61529 18.0932 8.68578C20.2404 7.75626 22.5427 7.2915 25 7.2915C29.1184 7.2915 32.7436 8.53143 35.8755 11.0113C39.0071 13.4915 41.075 16.632 42.0792 20.4327Z" fill="url(#paint0_linear_19_140)"/>
</g>
<defs>
<linearGradient id="paint0_linear_19_140" x1="25.2604" y1="7.2915" x2="25.2604" y2="42.7082" gradientUnits="userSpaceOnUse">
<stop stop-color="#C086EC"/>
<stop offset="1" stop-color="#7F48D6"/>
</linearGradient>
</defs>
</svg>
