<svg width="260" height="260" viewBox="0 0 260 260" fill="none" xmlns="http://www.w3.org/2000/svg">
<path d="M260 130C260 201.797 201.797 260 130 260C58.203 260 0 201.797 0 130C0 58.203 58.203 0 130 0C201.797 0 260 58.203 260 130ZM45.6217 130C45.6217 176.601 83.3991 214.378 130 214.378C176.601 214.378 214.378 176.601 214.378 130C214.378 83.3991 176.601 45.6217 130 45.6217C83.3991 45.6217 45.6217 83.3991 45.6217 130Z" fill="url(#paint0_linear_8_92)"/>
<path d="M99.3782 222.106L90.9804 241.354L83.4738 238.079C81.7873 237.343 80.4643 236.449 79.5047 235.398C78.5451 234.346 77.9645 233.177 77.7627 231.888C77.561 230.6 77.7641 229.26 78.3719 227.866C78.9798 226.473 79.8244 225.413 80.9059 224.684C81.9794 223.974 83.2278 223.613 84.6513 223.602C86.0748 223.59 87.6297 223.952 89.3162 224.688L95.3105 227.303L93.5213 228.028L96.6285 220.906L99.3782 222.106ZM86.5096 216.492L88.3569 225.611L85.4147 224.328L83.5125 215.184L86.5096 216.492ZM93.6413 227.753L94.2908 229.64L88.379 227.061C86.6192 226.293 85.1262 226.089 83.9001 226.449C82.6476 226.819 81.7214 227.691 81.1216 229.066C80.5218 230.441 80.5162 231.704 81.1048 232.856C81.6751 233.999 82.8402 234.955 84.6 235.723L90.5118 238.302L88.6746 239.137L93.6413 227.753Z" fill="#7125D6" fill-opacity="0.85"/>
<path d="M67.8583 203.345C69.1469 204.453 70.0555 205.697 70.5843 207.076C71.0979 208.441 71.2297 209.821 70.9796 211.216C70.7144 212.597 70.0665 213.886 69.0359 215.084C68.0053 216.282 66.8344 217.121 65.5232 217.602C64.1968 218.07 62.857 218.171 61.5039 217.903C60.1226 217.638 58.8559 217.01 57.7037 216.018C56.5365 215.014 55.7274 213.869 55.2766 212.584C54.8257 211.299 54.7546 209.971 55.0631 208.601C55.3435 207.232 56.0186 205.927 57.0883 204.684C57.1666 204.593 57.2655 204.493 57.385 204.385C57.4894 204.263 57.5948 204.156 57.7013 204.063L67.9567 212.889L66.6064 214.458L57.488 206.611L58.8445 206.828C58.164 207.588 57.7296 208.415 57.5413 209.308C57.3529 210.202 57.4109 211.07 57.7151 211.912C57.9911 212.756 58.5157 213.511 59.2888 214.176C60.0468 214.829 60.8714 215.235 61.7627 215.395C62.6409 215.57 63.5142 215.491 64.3826 215.156C65.2379 214.837 66.0048 214.283 66.6832 213.495L66.9963 213.131C67.6877 212.327 68.1254 211.451 68.3095 210.501C68.4654 209.553 68.3599 208.618 67.9929 207.695C67.626 206.773 67.0104 205.94 66.1463 205.196C65.4339 204.583 64.6852 204.15 63.9004 203.896C63.1005 203.63 62.272 203.551 61.4149 203.657L61.4229 201.21C62.5166 201.043 63.6162 201.145 64.7219 201.516C65.8123 201.874 66.8578 202.484 67.8583 203.345Z" fill="#7125D6" fill-opacity="0.85"/>
<path d="M49.0583 181.024C49.7606 182.141 50.1503 183.325 50.2275 184.576C50.2772 185.82 49.9695 187.041 49.3046 188.238C48.629 189.419 47.5292 190.488 46.0051 191.445C44.481 192.403 43.046 192.939 41.7 193.052C40.3435 193.149 39.1239 192.899 38.0412 192.304C36.948 191.692 36.0395 190.81 35.316 189.658C34.486 188.338 34.0397 186.988 33.977 185.61C33.9144 184.232 34.2133 182.923 34.8739 181.681C35.5175 180.45 36.5252 179.403 37.8969 178.541C39.2686 177.679 40.6572 177.22 42.0626 177.164C43.468 177.108 44.7778 177.406 45.992 178.061C47.2063 178.715 48.2283 179.703 49.0583 181.024ZM58.3189 185.161L39.928 196.717L38.4596 194.38L42.0921 192.097L45.3122 190.286L48.277 188.069L56.7866 182.722L58.3189 185.161ZM47.0523 182.567C46.5096 181.704 45.8307 181.056 45.0156 180.623C44.1898 180.173 43.2989 179.977 42.343 180.035C41.3594 180.086 40.3935 180.409 39.4451 181.005C38.4799 181.612 37.7778 182.336 37.3388 183.179C36.8723 184.015 36.6624 184.903 36.7092 185.842C36.7453 186.764 37.0347 187.657 37.5774 188.521C38.1094 189.368 38.7883 190.016 39.6141 190.465C40.4292 190.898 41.3201 191.094 42.2867 191.054C43.2258 191.007 44.1779 190.68 45.1432 190.074C46.0915 189.478 46.8074 188.756 47.2909 187.909C47.7467 187.056 47.9566 186.168 47.9205 185.246C47.8737 184.307 47.5843 183.414 47.0523 182.567Z" fill="#7125D6" fill-opacity="0.85"/>
<path d="M37.2406 152.293L33.9951 153.162L33.4254 153.47L27.8907 154.953C26.7122 155.269 25.8974 155.86 25.4463 156.726C24.9706 157.578 24.9166 158.69 25.2841 160.062C25.5274 160.97 25.92 161.817 26.4621 162.604C26.9848 163.395 27.5775 164.023 28.2403 164.488L26.4644 166.206C25.6147 165.584 24.8781 164.767 24.2546 163.754C23.6067 162.727 23.1196 161.605 22.7935 160.388C22.2293 158.282 22.3064 156.522 23.0249 155.108C23.7434 153.694 25.1555 152.704 27.2612 152.14L36.5341 149.656L37.2406 152.293ZM38.7655 157.288C39.0709 158.428 39.1469 159.484 38.9935 160.457C38.8349 161.411 38.4796 162.21 37.9277 162.855C37.3565 163.505 36.6362 163.946 35.7669 164.179C34.9362 164.402 34.131 164.41 33.3513 164.205C32.5665 163.981 31.8521 163.478 31.2083 162.698C30.5593 161.899 30.0304 160.736 29.6215 159.21L28.317 154.342L30.3165 153.806L31.5899 158.559C31.9626 159.949 32.4454 160.824 33.0385 161.183C33.6315 161.542 34.2565 161.633 34.9133 161.457C35.6667 161.255 36.195 160.793 36.4982 160.07C36.7821 159.352 36.7817 158.462 36.497 157.399C36.2174 156.356 35.7423 155.51 35.0716 154.861C34.3957 154.194 33.5669 153.805 32.5851 153.695L34.3501 152.632C35.3564 152.756 36.2542 153.209 37.0436 153.991C37.8137 154.779 38.3877 155.878 38.7655 157.288Z" fill="#7125D6" fill-opacity="0.85"/>
<path d="M35.0794 129.524L19.1905 128.93L19.2982 126.052L35.1871 126.646L35.0794 129.524ZM16.1865 127.377C16.1655 127.936 15.9681 128.399 15.5941 128.765C15.2209 129.112 14.7745 129.275 14.2549 129.256C13.7152 129.235 13.2723 129.039 12.926 128.666C12.5805 128.272 12.4182 127.796 12.4391 127.236C12.46 126.677 12.6571 126.224 13.0303 125.877C13.3843 125.51 13.8211 125.337 14.3407 125.356C14.8803 125.376 15.3333 125.573 15.6996 125.947C16.0459 126.321 16.2082 126.797 16.1865 127.377Z" fill="#7125D6" fill-opacity="0.85"/>
<path d="M39.2865 103.375L24.2788 98.1235L25.1903 95.5184L29.2679 96.9452L28.1593 96.8433C27.2664 96.0647 26.7179 95.0888 26.514 93.9156C26.31 92.7424 26.459 91.4385 26.9611 90.0038L29.5945 90.9252C29.536 91.0319 29.4869 91.1419 29.4473 91.2551C29.4143 91.3495 29.3812 91.4439 29.3482 91.5383C28.8396 92.9919 28.8708 94.2953 29.4419 95.4487C30.0131 96.602 31.1198 97.4661 32.7622 98.0408L40.2377 100.657L39.2865 103.375Z" fill="#7125D6" fill-opacity="0.85"/>
<path d="M67.0367 59.9106L48.9182 47.1826L51.4044 45.3477L68.1023 57.1107L66.8471 58.0371L60.7217 38.4713L62.9424 36.8324L79.7127 48.5419L78.5058 49.4326L72.2596 29.9559L74.5527 28.2635L81.3746 49.3287L78.8402 51.1992L63.2451 40.3748L63.8968 39.8938L69.6195 58.0044L67.0367 59.9106Z" fill="#7125D6" fill-opacity="0.85"/>
<path d="M99.5623 41.6124C97.9577 42.1739 96.4262 42.339 94.968 42.1076C93.5286 41.8696 92.2677 41.2938 91.1851 40.3801C90.1215 39.4597 89.3287 38.2539 88.8069 36.7625C88.285 35.2712 88.1436 33.8375 88.3825 32.4613C88.6402 31.0786 89.2232 29.8682 90.1312 28.83C91.0516 27.7663 92.2291 26.9835 93.6638 26.4815C95.1174 25.9728 96.5134 25.8446 97.8517 26.0967C99.1901 26.3488 100.376 26.9511 101.408 27.9035C102.453 28.8304 103.246 30.0679 103.788 31.6159C103.827 31.7291 103.864 31.8646 103.898 32.0222C103.951 32.1732 103.991 32.3181 104.018 32.4569L91.2477 36.9255L90.564 34.9717L101.919 30.9984L101.052 32.0645C100.734 31.0951 100.236 30.3055 99.5561 29.6957C98.8765 29.086 98.096 28.7022 97.2145 28.5445C96.3452 28.3613 95.4292 28.4382 94.4664 28.7751C93.5225 29.1054 92.7584 29.6164 92.1741 30.3082C91.5832 30.9811 91.2155 31.7773 91.071 32.6966C90.9199 33.597 91.0162 34.538 91.3596 35.5197L91.5182 35.9727C91.8683 36.9732 92.4086 37.7907 93.1391 38.425C93.8818 39.0338 94.7445 39.41 95.727 39.5536C96.7096 39.6971 97.7389 39.5806 98.8149 39.2041C99.7022 38.8936 100.452 38.4619 101.063 37.9088C101.694 37.3492 102.177 36.6715 102.513 35.8759L104.628 37.1064C104.226 38.137 103.588 39.0384 102.714 39.8104C101.859 40.5758 100.808 41.1765 99.5623 41.6124Z" fill="#7125D6" fill-opacity="0.85"/>
<path d="M128.293 36.4918C126.934 36.5427 125.693 36.2889 124.572 35.7304C123.469 35.1512 122.576 34.274 121.892 33.0988C121.227 31.9228 120.861 30.4355 120.794 28.6367C120.727 26.838 120.99 25.3271 121.585 24.104C122.2 22.8801 123.035 21.9482 124.092 21.3083C125.169 20.6676 126.367 20.3225 127.686 20.2732C129.245 20.2148 130.637 20.503 131.861 21.1377C133.086 21.7723 134.071 22.6861 134.816 23.8791C135.56 25.0521 135.963 26.448 136.023 28.0669C136.084 29.6858 135.787 31.1179 135.133 32.3632C134.479 33.6085 133.566 34.5934 132.392 35.3177C131.218 36.0421 129.852 36.4335 128.293 36.4918ZM119.862 36.6272L119.03 14.3827L121.908 14.275L122.304 24.8576L122.142 28.5563L122.46 32.237L122.62 36.524L119.862 36.6272ZM127.959 33.9826C128.978 33.9444 129.879 33.6806 130.661 33.191C131.463 32.7006 132.079 32.0272 132.507 31.1705C132.954 30.2932 133.157 29.2949 133.115 28.1757C133.073 27.0365 132.796 26.0662 132.286 25.2647C131.795 24.4425 131.131 23.8168 130.294 23.3878C129.478 22.9581 128.56 22.7623 127.54 22.8004C126.541 22.8378 125.64 23.1016 124.838 23.592C124.056 24.0816 123.441 24.7551 122.992 25.6124C122.563 26.449 122.37 27.437 122.413 28.5762C122.455 29.6954 122.721 30.6761 123.213 31.5183C123.724 32.3397 124.388 32.9654 125.205 33.3951C126.042 33.8241 126.959 34.02 127.959 33.9826Z" fill="#7125D6" fill-opacity="0.85"/>
<path d="M154.808 39.6635C153.533 39.3218 152.363 38.8218 151.297 38.1635C150.25 37.5104 149.466 36.8447 148.944 36.1664L150.693 34.2747C151.231 34.895 151.941 35.4891 152.824 36.057C153.707 36.6249 154.651 37.0435 155.656 37.3127C156.95 37.6595 157.926 37.7244 158.585 37.5075C159.263 37.2957 159.69 36.8614 159.866 36.2046C159.995 35.7216 159.922 35.2983 159.647 34.9347C159.372 34.5711 158.962 34.244 158.419 33.9535C157.895 33.6681 157.298 33.384 156.629 33.101C155.964 32.7988 155.305 32.4772 154.651 32.1363C154.002 31.7761 153.427 31.3734 152.925 30.9284C152.428 30.464 152.076 29.9244 151.868 29.3096C151.665 28.6755 151.683 27.9142 151.921 27.0255C152.169 26.0982 152.647 25.3567 153.355 24.801C154.063 24.2453 154.94 23.9108 155.985 23.7973C157.054 23.6698 158.246 23.782 159.559 24.134C160.564 24.4032 161.545 24.8005 162.501 25.326C163.482 25.8373 164.242 26.4032 164.779 27.0235L163.001 28.9075C162.43 28.2575 161.791 27.7446 161.084 27.3689C160.377 26.9931 159.647 26.7043 158.894 26.5024C157.677 26.1763 156.714 26.1359 156.007 26.3811C155.304 26.607 154.87 27.029 154.705 27.6472C154.565 28.1688 154.63 28.6211 154.9 29.0041C155.195 29.3729 155.602 29.7096 156.12 30.0143C156.658 30.3241 157.26 30.6302 157.924 30.9324C158.594 31.2154 159.253 31.5369 159.902 31.8972C160.556 32.2381 161.124 32.6284 161.607 33.0683C162.109 33.5134 162.464 34.0433 162.672 34.6581C162.899 35.2781 162.896 36.0227 162.663 36.892C162.415 37.8193 161.929 38.5486 161.207 39.0798C160.485 39.611 159.58 39.9378 158.491 40.0602C157.407 40.1632 156.18 40.031 154.808 39.6635Z" fill="#7125D6" fill-opacity="0.85"/>
<path d="M179.882 50.135L188.341 36.6721L190.78 38.2043L182.32 51.6672L179.882 50.135ZM191.188 34.8472C190.714 34.5493 190.412 34.1468 190.282 33.6398C190.169 33.1435 190.25 32.6751 190.527 32.2348C190.814 31.7776 191.206 31.4923 191.702 31.3791C192.216 31.2764 192.709 31.3741 193.184 31.672C193.658 31.9699 193.951 32.3671 194.065 32.8634C194.206 33.3535 194.138 33.8187 193.861 34.259C193.574 34.7162 193.177 35.0099 192.67 35.1401C192.173 35.2534 191.68 35.1558 191.188 34.8472Z" fill="#7125D6" fill-opacity="0.85"/>
<path d="M204.149 71.4574C203.105 70.2447 202.622 69.0243 202.7 67.7963C202.778 66.5683 203.423 65.4325 204.636 64.3889L215.687 54.8785L217.566 57.0615L206.606 66.4935C205.954 67.0545 205.591 67.6442 205.516 68.2626C205.454 68.8961 205.684 69.5161 206.206 70.1225C206.793 70.8047 207.472 71.2101 208.242 71.3387L207.26 73.3711C206.685 73.2855 206.127 73.0664 205.587 72.7139C205.059 72.3765 204.58 71.9577 204.149 71.4574ZM209.492 56.6479L211.289 55.1019L217.903 62.7878L216.106 64.3337L209.492 56.6479Z" fill="#7125D6" fill-opacity="0.85"/>
<path d="M217.86 94.1537C217.181 92.5956 216.902 91.0808 217.023 89.6093C217.153 88.1562 217.633 86.8557 218.463 85.7079C219.302 84.5785 220.445 83.6978 221.893 83.066C223.341 82.4342 224.76 82.1859 226.15 82.3213C227.549 82.4751 228.799 82.9659 229.902 83.7939C231.032 84.6321 231.9 85.7479 232.508 87.141C233.124 88.5525 233.356 89.935 233.205 91.2885C233.054 92.642 232.542 93.8691 231.669 94.9699C230.823 96.081 229.648 96.9645 228.145 97.6203C228.035 97.6683 227.902 97.7151 227.748 97.7608C227.601 97.8248 227.46 97.8756 227.323 97.9132L221.913 85.5122L223.81 84.6844L228.621 95.7106L227.493 94.9262C228.436 94.5366 229.186 93.9802 229.743 93.257C230.301 92.5338 230.625 91.7268 230.716 90.8359C230.834 89.9554 230.689 89.0477 230.281 88.1128C229.881 87.1962 229.314 86.4724 228.581 85.9415C227.866 85.4025 227.044 85.0953 226.117 85.02C225.208 84.9366 224.276 85.1028 223.323 85.5187L222.883 85.7107C221.912 86.1346 221.137 86.7344 220.559 87.5103C220.007 88.2965 219.697 89.1849 219.627 90.1754C219.557 91.1659 219.75 92.1836 220.206 93.2285C220.582 94.0901 221.069 94.8052 221.666 95.3738C222.271 95.9607 222.983 96.392 223.801 96.6677L222.732 98.8688C221.675 98.5448 220.728 97.9759 219.893 97.1619C219.066 96.3663 218.388 95.3636 217.86 94.1537Z" fill="#7125D6" fill-opacity="0.85"/>
<mask id="mask0_8_92" style="mask-type:alpha" maskUnits="userSpaceOnUse" x="87" y="87" width="86" height="86">
<rect x="87" y="87" width="86" height="86" fill="#D9D9D9"/>
</mask>
<g mask="url(#mask0_8_92)">
<path d="M107.962 130L106.887 124.625C106.171 124.326 105.499 124.013 104.872 123.684C104.245 123.356 103.603 122.953 102.946 122.475L97.75 124.087L94.1666 117.996L98.2875 114.412C98.168 113.636 98.1083 112.86 98.1083 112.083C98.1083 111.307 98.168 110.531 98.2875 109.754L94.1666 106.171L97.75 100.079L102.946 101.692C103.603 101.214 104.245 100.811 104.872 100.482C105.499 100.154 106.171 99.8402 106.887 99.5416L107.962 94.1666H115.129L116.204 99.5416C116.921 99.8402 117.593 100.154 118.22 100.482C118.847 100.811 119.489 101.214 120.146 101.692L125.342 100.079L128.925 106.171L124.804 109.754C124.924 110.531 124.983 111.307 124.983 112.083C124.983 112.86 124.924 113.636 124.804 114.412L128.925 117.996L125.342 124.087L120.146 122.475C119.489 122.953 118.847 123.356 118.22 123.684C117.593 124.013 116.921 124.326 116.204 124.625L115.129 130H107.962ZM111.546 119.25C113.517 119.25 115.204 118.548 116.607 117.145C118.011 115.741 118.712 114.054 118.712 112.083C118.712 110.112 118.011 108.425 116.607 107.022C115.204 105.618 113.517 104.917 111.546 104.917C109.575 104.917 107.888 105.618 106.484 107.022C105.081 108.425 104.379 110.112 104.379 112.083C104.379 114.054 105.081 115.741 106.484 117.145C107.888 118.548 109.575 119.25 111.546 119.25ZM140.033 169.417L138.421 161.892C137.406 161.533 136.465 161.1 135.599 160.593C134.733 160.085 133.882 159.503 133.046 158.846L125.879 161.175L120.862 152.575L126.596 147.558C126.476 146.483 126.417 145.408 126.417 144.333C126.417 143.258 126.476 142.183 126.596 141.108L120.862 136.092L125.879 127.492L133.046 129.821C133.882 129.164 134.733 128.582 135.599 128.074C136.465 127.566 137.406 127.133 138.421 126.775L140.033 119.25H150.067L151.679 126.775C152.694 127.133 153.635 127.566 154.501 128.074C155.367 128.582 156.218 129.164 157.054 129.821L164.221 127.492L169.237 136.092L163.504 141.108C163.624 142.183 163.683 143.258 163.683 144.333C163.683 145.408 163.624 146.483 163.504 147.558L169.237 152.575L164.221 161.175L157.054 158.846C156.218 159.503 155.367 160.085 154.501 160.593C153.635 161.1 152.694 161.533 151.679 161.892L150.067 169.417H140.033ZM145.05 155.083C148.036 155.083 150.574 154.038 152.665 151.948C154.755 149.858 155.8 147.319 155.8 144.333C155.8 141.347 154.755 138.809 152.665 136.719C150.574 134.628 148.036 133.583 145.05 133.583C142.064 133.583 139.526 134.628 137.435 136.719C135.345 138.809 134.3 141.347 134.3 144.333C134.3 147.319 135.345 149.858 137.435 151.948C139.526 154.038 142.064 155.083 145.05 155.083Z" fill="url(#paint1_linear_8_92)" fill-opacity="0.36"/>
</g>
<defs>
<linearGradient id="paint0_linear_8_92" x1="0" y1="0" x2="168.5" y2="168.5" gradientUnits="userSpaceOnUse">
<stop stop-color="#301C52"/>
<stop offset="1" stop-color="#171129"/>
</linearGradient>
<linearGradient id="paint1_linear_8_92" x1="131.702" y1="94.1666" x2="131.702" y2="169.417" gradientUnits="userSpaceOnUse">
<stop stop-color="#C086EC"/>
<stop offset="1" stop-color="#7F48D6"/>
</linearGradient>
</defs>
</svg>
